<svg width="512" height="512" viewBox="0 0 512 512" fill="none" xmlns="http://www.w3.org/2000/svg">
  <path d="M 130 110 C 130 95, 142 84, 158 84 H 360 C 378 84, 388 106, 374 118 L 340 148 C 330 156, 315 160, 298 160 H 210 V 210 H 320 C 338 210, 348 232, 334 244 L 304 270 C 294 278, 279 282, 262 282 H 210 V 380 C 210 396, 196 408, 180 408 C 164 408, 150 396, 150 380 V 160 H 130 Z" fill="#0A192F"/>
  <path d="M 170 282 C 170 252, 200 240, 240 240 H 265 C 240 290, 210 350, 180 405 C 160 440, 138 468, 118 478 C 108 483, 98 468, 108 456 C 128 432, 152 388, 175 340 C 170 325, 170 300, 170 282 Z" fill="#10B981"/>
</svg>
