<svg width="512" height="512" viewBox="0 0 512 512" fill="none" xmlns="http://www.w3.org/2000/svg">
  <!-- Top F Portion (Midnight Navy / Theme Aware) -->
  <path d="M 130 96 C 130 80, 145 70, 165 70 H 350 C 385 70, 400 108, 365 130 L 335 150 C 322 158, 305 162, 285 162 H 230 V 210 H 320 C 355 210, 365 248, 332 268 L 305 284 C 292 292, 275 296, 255 296 H 230 V 320 C 230 340, 212 355, 192 355 C 172 355, 155 340, 155 320 V 162 H 145 C 135 162, 130 152, 130 142 V 96 Z" fill="#0A192F"/>

  <!-- Upper Horizontal Slanted Bar -->
  <path d="M 130 86 H 360 C 385 86, 395 116, 370 134 L 170 274 C 150 288, 130 276, 130 252 V 86 Z" fill="#0A192F"/>

  <!-- Bottom Dynamic Growth Curve (Mint Green #10B981) -->
  <path d="M 155 285 C 155 255, 185 245, 230 245 H 260 C 240 285, 210 345, 182 395 C 162 430, 142 458, 122 468 C 112 473, 102 458, 112 446 C 132 422, 155 380, 178 335 C 165 330, 155 310, 155 285 Z" fill="#10B981"/>
</svg>
